<svg width="25" height="22" viewBox="0 0 25 22" fill="none" xmlns="http://www.w3.org/2000/svg">
<path d="M21.7267 1.38875C21.46 0.5775 20.7133 0 19.8333 0H5.16667C4.28667 0 3.55333 0.5775 3.27333 1.38875L0.5 9.625V20.625C0.5 21.3813 1.1 22 1.83333 22H3.16667C3.9 22 4.5 21.3813 4.5 20.625V19.25H20.5V20.625C20.5 21.3813 21.1 22 21.8333 22H23.1667C23.9 22 24.5 21.3813 24.5 20.625V9.625L21.7267 1.38875ZM5.16667 15.125C4.06 15.125 3.16667 14.2037 3.16667 13.0625C3.16667 11.9213 4.06 11 5.16667 11C6.27333 11 7.16667 11.9213 7.16667 13.0625C7.16667 14.2037 6.27333 15.125 5.16667 15.125ZM19.8333 15.125C18.7267 15.125 17.8333 14.2037 17.8333 13.0625C17.8333 11.9213 18.7267 11 19.8333 11C20.94 11 21.8333 11.9213 21.8333 13.0625C21.8333 14.2037 20.94 15.125 19.8333 15.125ZM3.16667 8.25L5.16667 2.0625H19.8333L21.8333 8.25H3.16667Z" fill="white"/>
</svg>
