<svg width="39" height="39" viewBox="0 0 39 39" fill="none" xmlns="http://www.w3.org/2000/svg">
<g clip-path="url(#clip0_445_932)">
<path d="M32.5 7.3125V8.9375C32.5 9.38623 32.1362 9.75 31.6875 9.75H7.3125C6.86377 9.75 6.5 9.38623 6.5 8.9375V7.3125C6.5 6.86377 6.86377 6.5 7.3125 6.5H14.625V4.875C14.625 3.97754 15.3525 3.25 16.25 3.25H22.75C23.6475 3.25 24.375 3.97754 24.375 4.875V6.5H31.6875C32.1362 6.5 32.5 6.86377 32.5 7.3125ZM9.53875 32.7275C9.65842 34.433 11.079 35.7542 12.7887 35.75H26.2437C27.9535 35.7542 29.3741 34.433 29.4937 32.7275L30.875 13H8.125L9.53875 32.7275Z" fill="white"/>
</g>
<defs>
<clipPath id="clip0_445_932">
<rect width="39" height="39" fill="white"/>
</clipPath>
</defs>
</svg>
