<svg width="23" height="25" viewBox="0 0 23 25" fill="none" xmlns="http://www.w3.org/2000/svg">
<path d="M21.5 6.25H17.75C17.75 2.79822 14.9518 0 11.5 0C8.04822 0 5.25 2.79822 5.25 6.25H1.5C0.809644 6.25 0.25 6.80964 0.25 7.5V22.5C0.25 23.8807 1.36929 25 2.75 25H20.25C21.6307 25 22.75 23.8807 22.75 22.5V7.5C22.75 6.80964 22.1904 6.25 21.5 6.25ZM7.75 10.625C7.75 10.9702 7.47018 11.25 7.125 11.25H5.875C5.52982 11.25 5.25 10.9702 5.25 10.625V9.375C5.25 9.02982 5.52982 8.75 5.875 8.75H7.125C7.47018 8.75 7.75 9.02982 7.75 9.375V10.625ZM11.5 2.5C13.5711 2.5 15.25 4.17893 15.25 6.25H7.75C7.75 4.17893 9.42893 2.5 11.5 2.5ZM17.75 10.625C17.75 10.9702 17.4702 11.25 17.125 11.25H15.875C15.5298 11.25 15.25 10.9702 15.25 10.625V9.375C15.25 9.02982 15.5298 8.75 15.875 8.75H17.125C17.4702 8.75 17.75 9.02982 17.75 9.375V10.625Z" fill="white"/>
</svg>
