<svg width="29" height="17" viewBox="0 0 29 17" fill="none" xmlns="http://www.w3.org/2000/svg">
<path d="M25.9545 6.07143C24.5545 6.07143 23.4091 7.16429 23.4091 8.5V12.1429H5.59091V8.5C5.59091 7.16429 4.45818 6.07143 3.04545 6.07143C1.63273 6.07143 0.5 7.16429 0.5 8.5V14.5714C0.5 15.9071 1.64545 17 3.04545 17H25.9545C27.3545 17 28.5 15.9071 28.5 14.5714V8.5C28.5 7.16429 27.3545 6.07143 25.9545 6.07143ZM22.1364 0H6.86364C5.46364 0 4.31818 1.09286 4.31818 2.42857V5.03929C5.79455 5.53714 6.86364 6.885 6.86364 8.45143V10.9286H22.1364V8.46357C22.1364 6.885 23.2055 5.54929 24.6818 5.05143V2.42857C24.6818 1.09286 23.5364 0 22.1364 0Z" fill="white"/>
</svg>
