<svg width="35" height="20" viewBox="0 0 35 20" fill="none" xmlns="http://www.w3.org/2000/svg">
<path d="M31.5 0H3.5C1.575 0 0.0175 1.28571 0.0175 2.85714L0 17.1429C0 18.7143 1.575 20 3.5 20H31.5C33.425 20 35 18.7143 35 17.1429V2.85714C35 1.28571 33.425 0 31.5 0ZM15.75 4.28571H19.25V7.14286H15.75V4.28571ZM15.75 8.57143H19.25V11.4286H15.75V8.57143ZM10.5 4.28571H14V7.14286H10.5V4.28571ZM10.5 8.57143H14V11.4286H10.5V8.57143ZM8.75 11.4286H5.25V8.57143H8.75V11.4286ZM8.75 7.14286H5.25V4.28571H8.75V7.14286ZM24.5 17.1429H10.5V14.2857H24.5V17.1429ZM24.5 11.4286H21V8.57143H24.5V11.4286ZM24.5 7.14286H21V4.28571H24.5V7.14286ZM29.75 11.4286H26.25V8.57143H29.75V11.4286ZM29.75 7.14286H26.25V4.28571H29.75V7.14286Z" fill="#9D9D9D"/>
</svg>
