<svg width="31" height="31" viewBox="0 0 31 31" fill="none" xmlns="http://www.w3.org/2000/svg">
<path d="M24.5417 9.04167V6.45833C24.5417 5.0316 23.3851 3.875 21.9583 3.875H9.04167C7.61493 3.875 6.45833 5.0316 6.45833 6.45833V9.04167C5.0316 9.04167 3.875 10.1983 3.875 11.625V18.7292C3.875 19.0858 4.16415 19.375 4.52083 19.375H6.45833V24.5417C6.45833 25.9684 7.61493 27.125 9.04167 27.125H21.9583C23.3851 27.125 24.5417 25.9684 24.5417 24.5417V19.375H26.4792C26.8358 19.375 27.125 19.0858 27.125 18.7292V11.625C27.125 10.1983 25.9684 9.04167 24.5417 9.04167ZM9.04167 6.45833H21.9583V9.04167H9.04167V6.45833ZM21.9583 24.5417H9.04167V16.7917H21.9583V24.5417ZM24.5417 13.5625C24.5417 13.9192 24.2525 14.2083 23.8958 14.2083H22.6042C22.2475 14.2083 21.9583 13.9192 21.9583 13.5625V12.2708C21.9583 11.9141 22.2475 11.625 22.6042 11.625H23.8958C24.2525 11.625 24.5417 11.9141 24.5417 12.2708V13.5625Z" fill="white"/>
</svg>
