<svg width="23" height="27" viewBox="0 0 23 27" fill="none" xmlns="http://www.w3.org/2000/svg">
<path d="M14.3998 3.16659C14.3998 1.73985 15.5585 0.583252 16.9877 0.583252C18.4169 0.583252 19.5755 1.73985 19.5755 3.16659C19.5755 4.59332 18.4169 5.74992 16.9877 5.74992C15.5585 5.74992 14.3998 4.59332 14.3998 3.16659ZM21.6458 11.8853L19.1485 11.3816C18.8562 11.3165 18.5955 11.1521 18.411 10.9166L15.5385 7.57117C14.5546 6.41521 13.1115 5.74926 11.592 5.74992H7.63259C6.8089 5.7519 6.03534 6.14519 5.54936 6.80909L3.37557 9.79284C3.27529 9.93304 3.23529 10.1074 3.26445 10.2772C3.29361 10.447 3.38951 10.5981 3.53084 10.697L4.56598 11.4462C4.70359 11.5511 4.87822 11.5953 5.04929 11.5685C5.22036 11.5416 5.37299 11.4461 5.47173 11.3041L7.34792 8.72075C7.53657 8.47637 7.82816 8.33322 8.13722 8.33325H10.1428L7.0115 12.4795L6.80447 12.7637C6.59131 13.0467 6.50386 13.4046 6.56256 13.7538C6.62127 14.1029 6.82099 14.4127 7.11502 14.6108L12.6789 18.3049C12.944 18.4918 13.1029 18.7947 13.1059 19.1187V25.7708C13.1059 26.1274 13.3956 26.4166 13.7529 26.4166H15.0468C15.4041 26.4166 15.6938 26.1274 15.6938 25.7708V18.6666C15.6965 17.8003 15.2641 16.9903 14.5422 16.5095L11.812 14.6495L14.788 10.7099L16.4054 12.6216C16.9719 13.2873 17.747 13.7425 18.6051 13.9133L21.3482 14.4558C21.5386 14.4945 21.7364 14.4459 21.8868 14.3232C22.0373 14.2005 22.1246 14.0168 22.1246 13.8228V12.5312C22.1349 12.2309 21.9365 11.9633 21.6458 11.8853ZM5.82109 18.2791C5.63918 18.5247 5.35067 18.6687 5.04473 18.6666H0.81359C0.456281 18.6666 0.166626 18.9557 0.166626 19.3124V20.6041C0.166626 20.9608 0.456281 21.2499 0.81359 21.2499H5.53643C6.35097 21.2499 7.11798 20.8671 7.60671 20.2166L8.90064 18.4987L6.7139 17.0649L5.82109 18.2791Z" fill="white"/>
</svg>
