<svg width="27" height="27" viewBox="0 0 27 27" fill="none" xmlns="http://www.w3.org/2000/svg">
<path d="M26.4426 24.3795L20.6093 18.5392C20.4204 18.3455 20.21 18.1741 19.9822 18.0281L18.5239 17.0207C21.5236 13.3045 21.5514 8.00352 18.591 4.25599C15.6305 0.508456 10.4718 -0.685439 6.16904 1.38112C1.86624 3.44769 -0.432344 8.22317 0.634126 12.8804C1.7006 17.5375 5.84749 20.8335 10.6197 20.8169C12.9356 20.8176 15.1829 20.0298 16.9926 18.583L18.0864 20.0431C18.2161 20.2311 18.3626 20.407 18.5239 20.5687L24.3572 26.4091C24.4941 26.5473 24.6805 26.625 24.8749 26.625C25.0694 26.625 25.2557 26.5473 25.3926 26.4091L26.4135 25.387C26.6903 25.1128 26.7032 24.6693 26.4426 24.3795ZM10.6197 17.8967C6.59265 17.8967 3.32806 14.6282 3.32806 10.5963C3.32806 6.56433 6.59265 3.29581 10.6197 3.29581C14.6468 3.29581 17.9114 6.56433 17.9114 10.5963C17.9114 12.5325 17.1432 14.3894 15.7757 15.7585C14.4083 17.1276 12.5536 17.8967 10.6197 17.8967Z" fill="#333333"/>
</svg>
