<svg width="40" height="40" viewBox="0 0 40 40" fill="none" xmlns="http://www.w3.org/2000/svg">
<g clip-path="url(#clip0_140_1523)">
<path d="M35.0001 24.5591L33.6667 23.4569C32.8583 22.7844 32.4136 21.7695 32.4667 20.7181C32.4667 20.4843 32.4667 20.2338 32.4667 20C32.4667 19.7662 32.4667 19.5157 32.4667 19.2819C32.4136 18.2305 32.8583 17.2155 33.6667 16.5431L35.0001 15.4409C35.6327 14.9268 35.8018 14.0299 35.4001 13.32L33.4667 9.98002C33.0569 9.28268 32.2071 8.98008 31.4501 9.26193L29.7834 9.86312C28.7998 10.2315 27.7005 10.1139 26.8167 9.54583C26.4249 9.27461 26.0126 9.03451 25.5834 8.82773C24.6455 8.34582 23.9904 7.44787 23.8167 6.40624L23.5334 4.73625C23.4013 3.91952 22.6924 3.32281 21.8667 3.33345H18.0334C17.2077 3.32281 16.4988 3.91952 16.3667 4.73625L16.0834 6.40624C15.9242 7.43471 15.2956 8.33005 14.3834 8.82773C13.9542 9.03451 13.5418 9.27461 13.1501 9.54583C12.2662 10.1139 11.167 10.2315 10.1834 9.86312L8.51672 9.26193C7.7693 8.9985 6.94011 9.29872 6.53338 9.98002L4.60005 13.32C4.19826 14.0299 4.36742 14.9268 5.00005 15.4409L6.33338 16.5431C7.1418 17.2155 7.58651 18.2305 7.53338 19.2819C7.53338 19.5157 7.53338 19.7662 7.53338 20C7.53338 20.2338 7.53338 20.4843 7.53338 20.7181C7.58651 21.7695 7.1418 22.7844 6.33338 23.4569L5.00005 24.5591C4.36742 25.0731 4.19826 25.97 4.60005 26.6799L6.53338 30.0199C6.94317 30.7173 7.79298 31.0199 8.55005 30.738L10.2167 30.1368C11.2003 29.7685 12.2996 29.8861 13.1834 30.4541C13.5752 30.7253 13.9876 30.9654 14.4167 31.1722C15.3546 31.6541 16.0097 32.5521 16.1834 33.5937L16.4667 35.2637C16.5988 36.0804 17.3077 36.6772 18.1334 36.6665H21.9667C22.7924 36.6772 23.5013 36.0804 23.6334 35.2637L23.9167 33.5937C24.0904 32.5521 24.7455 31.6541 25.6834 31.1722C26.1125 30.9654 26.5249 30.7253 26.9167 30.4541C27.8005 29.8861 28.8998 29.7685 29.8834 30.1368L31.5501 30.738C32.2777 30.9661 33.0669 30.6704 33.4667 30.0199L35.4001 26.6799C35.8018 25.97 35.6327 25.0731 35.0001 24.5591ZM20.0001 25.01C17.2386 25.01 15.0001 22.7669 15.0001 20C15.0001 17.233 17.2386 14.99 20.0001 14.99C22.7615 14.99 25 17.233 25 20C25 21.3287 24.4733 22.603 23.5356 23.5426C22.5979 24.4821 21.3261 25.01 20.0001 25.01Z" fill="white"/>
</g>
<defs>
<clipPath id="clip0_140_1523">
<rect width="40" height="40" fill="white"/>
</clipPath>
</defs>
</svg>
